<svg height="1024" stroke-miterlimit="10" viewBox="0 0 1024 1024" width="1024" xmlns="http://www.w3.org/2000/svg" clip-rule="evenodd" stroke-linecap="round" stroke-linejoin="round"><g fill="#5e81ac"><path d="M74.352 879.437L207.03 347.895l186.117 148.607 84.674-386.991 186.92 435.047 128.402-207.11 125.832 543.337-844.623-1.348z" fill-opacity=".2" stroke="#5e81ac" stroke-linecap="butt" stroke-width="15"/><path d="M166.152 307.619a9 9 0 0 1 9-9h72a9 9 0 0 1 9 9v72a9 9 0 0 1-9 9h-72a9 9 0 0 1-9-9v-72zM620.769 504.148a9 9 0 0 1 9-9h72a9 9 0 0 1 9 9v72a9 9 0 0 1-9 9h-72a9 9 0 0 1-9-9v-72zM873.975 844.785a9 9 0 0 1 9-9h72a9 9 0 0 1 9 9v72a9 9 0 0 1-9 9h-72a9 9 0 0 1-9-9v-72zM748.6 307.619a9 9 0 0 1 9-9h72a9 9 0 0 1 9 9v72a9 9 0 0 1-9 9h-72a9 9 0 0 1-9-9v-72zM437.474 73.51a9 9 0 0 1 9-9h72a9 9 0 0 1 9 9v72.001a9 9 0 0 1-9 9h-72a9 9 0 0 1-9-9v-72zM347.474 459.148a9 9 0 0 1 9-9h72a9 9 0 0 1 9 9v72a9 9 0 0 1-9 9h-72a9 9 0 0 1-9-9v-72zM29.352 844.785a9 9 0 0 1 9-9h72a9 9 0 0 1 9 9v72a9 9 0 0 1-9 9h-72a9 9 0 0 1-9-9v-72z"/></g></svg>